<svg width="30" height="30" viewBox="0 0 30 30" fill="none" xmlns="http://www.w3.org/2000/svg">
<path fill-rule="evenodd" clip-rule="evenodd" d="M28.8829 0.0335728L28.8917 0.0312347C29.5407 -0.143843 30.1463 0.45018 29.9686 1.1086L29.9665 1.11645C29.965 1.12229 29.9634 1.12814 29.9617 1.13397L29.9599 1.14053L21.1959 29.3813C21.0819 29.7488 20.7422 29.9994 20.3575 30.0001H20.3561C19.9719 30.0001 19.6321 29.7507 19.517 29.3841L16.0979 18.4947L10.5797 20.5515C10.2577 20.6716 9.89449 20.5931 9.65068 20.3493C9.40729 20.1059 9.32824 19.7429 9.44848 19.4203L11.5054 13.902L0.615997 10.4831C0.248849 10.3678 -0.000643285 10.0274 1.24586e-06 9.6426C0.000645777 9.25782 0.25131 8.91821 0.618751 8.80413L28.8594 0.0400238L28.8658 0.038266C28.8715 0.0365682 28.8772 0.0350736 28.8829 0.0335815L28.8829 0.0335728ZM24.5867 3.20754L3.83063 9.64893L12.4839 12.3659L24.5867 3.20754ZM13.3877 13.8875L11.7686 18.2313L16.1123 16.6122L24.5871 5.41284L13.3877 13.8875ZM17.634 17.5159L20.351 26.1693L26.7923 5.41319L17.634 17.5159ZM5.74366 18.0385C6.08714 17.6951 6.64395 17.6951 6.98731 18.0385C7.33073 18.3819 7.33073 18.9387 6.98731 19.2822L1.711 24.5585C1.36753 24.9019 0.81071 24.9019 0.46735 24.5585C0.123932 24.215 0.123932 23.6582 0.46735 23.3148L5.74366 18.0385ZM11.9614 23.0125C11.618 22.669 11.0612 22.669 10.7178 23.0125L5.44144 28.2888C5.09802 28.6322 5.09802 29.189 5.44144 29.5325C5.7848 29.8759 6.34168 29.8759 6.6851 29.5325L11.9614 24.2562C12.3048 23.9128 12.3048 23.356 11.9614 23.0125ZM6.47195 22.2843C6.81542 21.9409 7.37224 21.9409 7.7156 22.2843C8.05902 22.6277 8.05902 23.1845 7.7156 23.528L1.50126 29.7423C1.15784 30.0857 0.600969 30.0857 0.25761 29.7423C-0.0858084 29.3988 -0.0858084 28.8421 0.25761 28.4987L6.47195 22.2843Z" fill="#1A75E8"/>
</svg>
